# xmcd
#
# Track frame offsets:
# 150
# 16432
# 31399
# 57791
# 73239
# 83517
# 95367
# 105891
# 121458
# 131445
# 145574
# 168446
# 184450
#
# Disc length: 2538 seconds
#
#
# Revision: 0
# Processed by: cddbd v1.5.1PL0 Copyright (c) Steve Scherf et al.
# Submitted via: FreeRIP 2.90 
#
DISCID=a609e80d
DTITLE=Diverse - Westernhits CD3
DYEAR=1900
DGENRE=Country
TTITLE0=Los tres hombres
TTITLE1=Apache
TTITLE2=If you could read my mind
TTITLE3=Blue lagoon night
TTITLE4=The sleepwalk
TTITLE5=Vern's boogie
TTITLE6=Tenderly
TTITLE7=I saw a face in the crowd
TTITLE8=Misty
TTITLE9=Only you
TTITLE10=Riviera paradise
TTITLE11=(S)He was just leavin'
TTITLE12=Misty (lap steel reprise)
EXTD=
EXTT0=
EXTT1=
EXTT2=
EXTT3=
EXTT4=
EXTT5=
EXTT6=
EXTT7=
EXTT8=
EXTT9=
EXTT10=
EXTT11=
EXTT12=
PLAYORDER=
